<svg width="20" height="21" viewBox="0 0 20 21" fill="none" xmlns="http://www.w3.org/2000/svg">
<path d="M17.3 7.59144C17.3 7.74977 17.2417 7.90811 17.1167 8.03311C16.875 8.27477 16.475 8.27477 16.2333 8.03311L12.0583 3.85811C11.8167 3.61644 11.8167 3.21644 12.0583 2.97477C12.3 2.7331 12.7 2.7331 12.9417 2.97477L17.1167 7.14977C17.2333 7.27477 17.3 7.43311 17.3 7.59144Z" fill="#949D9E"/>
<path d="M13.1166 3.41683V17.5835C13.1166 17.9252 12.8333 18.2085 12.4916 18.2085C12.15 18.2085 11.8666 17.9252 11.8666 17.5835L11.8666 3.41683C11.8666 3.07516 12.15 2.79183 12.4916 2.79183C12.8333 2.79183 13.1166 3.07516 13.1166 3.41683Z" fill="#949D9E"/>
<path d="M8.13331 17.5831C8.13331 17.7415 8.07497 17.8998 7.94997 18.0248C7.7083 18.2665 7.3083 18.2665 7.06664 18.0248L2.89164 13.8498C2.64997 13.6081 2.64997 13.2081 2.89164 12.9665C3.1333 12.7248 3.53331 12.7248 3.77497 12.9665L7.94997 17.1415C8.06664 17.2581 8.13331 17.4248 8.13331 17.5831Z" fill="#949D9E"/>
<path d="M8.13336 3.41683V17.5835C8.13336 17.9252 7.85003 18.2085 7.50836 18.2085C7.1667 18.2085 6.88336 17.9252 6.88336 17.5835L6.88336 3.41683C6.88336 3.07516 7.1667 2.79183 7.50836 2.79183C7.85003 2.79183 8.13336 3.07516 8.13336 3.41683Z" fill="#949D9E"/>
</svg>
