<svg width="37" height="23" viewBox="0 0 37 23" fill="none" xmlns="http://www.w3.org/2000/svg">
<path d="M23.3128 2.66983H13.448V20.33H23.3128V2.66983Z" fill="#FF5F00"/>
<path d="M14.0745 11.4999C14.0729 9.7991 14.4598 8.12023 15.2058 6.5904C15.9518 5.06058 17.0374 3.71988 18.3805 2.66982C16.7173 1.3675 14.7199 0.557599 12.6166 0.3327C10.5132 0.107801 8.3888 0.476965 6.48611 1.39802C4.58341 2.31907 2.97922 3.75484 1.85689 5.54121C0.734572 7.32758 0.139404 9.39248 0.139404 11.4999C0.139404 13.6073 0.734572 15.6722 1.85689 17.4586C2.97922 19.245 4.58341 20.6807 6.48611 21.6018C8.3888 22.5228 10.5132 22.892 12.6166 22.6671C14.7199 22.4422 16.7173 21.6323 18.3805 20.33C17.0375 19.2799 15.9518 17.9392 15.2058 16.4094C14.4598 14.8796 14.0729 13.2007 14.0745 11.4999Z" fill="#EB001B"/>
<path d="M36.621 11.4999C36.6211 13.6073 36.026 15.6722 34.9037 17.4585C33.7814 19.2449 32.1773 20.6807 30.2746 21.6018C28.372 22.5228 26.2476 22.892 24.1443 22.6671C22.0409 22.4422 20.0436 21.6323 18.3805 20.33C19.7223 19.2788 20.8071 17.9379 21.553 16.4084C22.2989 14.8788 22.6865 13.2004 22.6865 11.4999C22.6865 9.79937 22.2989 8.12103 21.553 6.59144C20.8071 5.06185 19.7223 3.72095 18.3805 2.66982C20.0436 1.36749 22.0409 0.557593 24.1443 0.332697C26.2476 0.107801 28.372 0.476982 30.2746 1.39804C32.1773 2.3191 33.7814 3.75487 34.9037 5.54124C36.026 7.32762 36.6211 9.39251 36.621 11.4999Z" fill="#F79E1B"/>
<path d="M35.5454 18.4595V18.0979H35.6917V18.0243H35.319V18.0979H35.4654V18.4595H35.5454ZM36.269 18.4595V18.0236H36.1547L36.0233 18.3234L35.8919 18.0236H35.7776V18.4595H35.8582V18.1307L35.9815 18.4142H36.0651L36.1883 18.1299V18.4595H36.269Z" fill="#F79E1B"/>
</svg>
