<svg width="48" height="16" viewBox="0 0 48 16" fill="none" xmlns="http://www.w3.org/2000/svg">
<path d="M24.0904 0.492797L20.9653 15.0458H17.1864L20.312 0.492797H24.0904ZM39.9897 9.88974L41.9792 4.42458L43.124 9.88974H39.9897ZM44.2059 15.0458H47.7014L44.6512 0.492797H41.4248C40.6999 0.492797 40.0882 0.912874 39.8158 1.56049L34.1463 15.0458H38.1148L38.9027 12.8727H43.751L44.2059 15.0458ZM34.3433 10.2942C34.3595 6.45311 29.0113 6.24169 29.0483 4.52591C29.0594 4.00312 29.5592 3.44854 30.6509 3.30621C31.1932 3.23574 32.6843 3.18185 34.3775 3.95798L35.0405 0.87188C34.1311 0.543003 32.9608 0.226562 31.5053 0.226562C27.7704 0.226562 25.1414 2.20489 25.1192 5.03765C25.0956 7.13252 26.9959 8.30155 28.4278 8.99799C29.9 9.71148 30.3947 10.1684 30.3883 10.8064C30.3785 11.7833 29.2139 12.2135 28.1273 12.2306C26.227 12.2605 25.1243 11.7197 24.2453 11.3116L23.5606 14.5005C24.4432 14.9044 26.073 15.2554 27.7639 15.2734C31.7333 15.2734 34.3304 13.3195 34.3433 10.2942ZM18.6905 0.492797L12.5679 15.0458H8.57262L5.55987 3.4315C5.37677 2.71617 5.21772 2.45454 4.6615 2.15284C3.75388 1.66229 2.25352 1.20122 0.933472 0.915638L1.02363 0.492797H7.4537C8.27301 0.492797 9.01048 1.03632 9.19635 1.97643L10.7878 10.3983L14.7202 0.492797H18.6905Z" fill="white"/>
</svg>
